<svg width="274" height="50" viewBox="0 0 274 50" fill="none" xmlns="http://www.w3.org/2000/svg">
<path d="M253.496 38.4571C252.756 38.7071 252.326 40.9271 251.796 41.2371C250.136 42.2071 246.306 40.2171 245.996 42.4471C248.006 41.0171 258.166 45.5371 255.986 47.4471C250.776 48.3571 245.396 46.5671 240.536 46.4071C188.756 44.7471 129.806 41.7271 78.4559 44.4071C64.7559 45.1171 51.2259 48.807 37.4859 49.437C27.8659 49.887 18.1159 50.9371 10.4459 44.4571L11.0059 36.4471L2.99594 35.437C0.965943 30.857 14.5859 36.667 10.5159 32.437C8.54594 30.387 2.77594 31.8771 0.00594311 31.4471C-0.294057 22.5571 10.8359 24.7471 16.9959 24.4471C15.8259 17.7971 7.74594 19.3771 3.00594 17.9571L6.77594 15.7271L18.9859 13.4571C13.0359 11.3971 7.25594 11.147 0.995943 11.437C2.69594 7.39705 5.75594 2.26706 10.5559 1.50705C23.6859 -0.572945 45.1959 1.8571 59.5359 1.4871C61.9059 1.4271 64.0859 0.457079 66.4559 0.407079C129.056 -1.05292 191.546 1.04706 253.186 12.7671C259.346 13.9371 266.666 14.7271 271.996 17.9571L264.006 17.4671C263.566 19.4871 268.176 17.347 266.996 19.937C265.086 24.097 244.506 17.7871 240.016 19.4671L258.246 22.7171L263.006 26.4471C252.266 24.5671 241.366 24.2771 230.456 24.4071L220.006 26.4571H236.506C238.126 26.4571 242.806 28.4371 244.996 28.4671C244.566 31.2371 240.166 28.4571 239.506 28.4571H222.006L266.206 34.747C268.136 35.717 273.646 35.0571 273.006 38.4571C268.226 39.4171 257.396 37.1571 253.506 38.4571H253.496Z" fill="black" style="fill:black;fill-opacity:1;"/>
</svg>
