<svg width="1440" height="2536" viewBox="0 0 1440 2536" fill="none" xmlns="http://www.w3.org/2000/svg">
<g clip-path="url(#clip0_67_1180)">
<path d="M700.284 126.101L703.984 129.772L706.758 127.324L708.608 118.754L709.535 99.1661L707.684 90.5965L703.984 69.7822H701.21L700.284 77.1291L698.434 86.925V102.838L699.36 110.185L700.284 126.101Z" fill="#100F0D"/>
<path d="M1515.14 1776.42L1511.44 1780.1L1505.89 1791.12L1502.19 1789.89V1776.42L1503.12 1775.2L1510.52 1773.97H1515.14V1776.42ZM1279.29 1713.99H1273.74L1275.59 1709.09H1279.29V1713.99ZM1173.84 2031.07L1170.14 2034.75L1165.52 2035.97L1166.45 2032.3L1171.99 2027.4H1173.84V2031.07ZM1123.9 2077.6L1119.27 2080.05L1123.9 2073.92H1125.75L1123.9 2077.6ZM1097.08 2093.51L1098 2091.06L1098.93 2093.51H1097.08ZM1141.68 952.621L1141.52 953.437L1138.7 954.935L1138.43 956.016L1135 958.607L1126.67 959.833V957.384L1128.66 955.811L1128.52 956.158L1131.3 954.935L1140.55 950.037V948.815H1142.4L1141.47 952.486L1141.68 952.621ZM1032.33 2095.96L1025.86 2102.19V2100.86L1022.16 2104.53L1017.86 2105.66L1017.99 2105.14L1019.38 2103.31L1027.71 2091.06V2089.84L1034.18 2084.94H1039.73L1040.66 2087.39L1032.33 2095.96ZM1039.73 2110.65H1037.88V2113.1L1032.33 2118L1029.56 2116.77L1037.88 2105.75H1039.27L1040.46 2106.8L1039.73 2110.65ZM1022.16 2132.69H1018.46L1019.38 2130.24H1022.16V2132.69ZM1013.83 2138.81L1011.06 2141.26L1007.36 2142.48L1011.98 2136.36H1013.83V2138.81ZM972.211 2093.51L971.287 2094.74H970.361L962.963 2103.31L949.088 2115.55L938.914 2120.44L937.064 2125.34L933.363 2127.79V2130.24L931.516 2131.46L922.265 2142.48L915.537 2150.27L914.867 2149.83L905.616 2160.85L900.992 2164.52V2158.4L903.766 2141.26L911.167 2136.36L910.705 2136.05L913.941 2133.91L941.688 2111.87L949.187 2106.43L950.012 2106.98L960.186 2099.63L967.587 2094.74L972.211 2092.29V2093.51ZM885.268 2242.87L886.194 2236.75H889.894L890.818 2240.42L885.268 2242.87ZM876.943 2233.08L875.093 2230.63L876.02 2225.73L877.87 2226.96L876.943 2233.08ZM865.845 2244.1V2231.86L866.769 2230.63H868.619L870.469 2242.87L865.845 2244.1ZM867.695 2250.22H865.845L864.921 2247.77H867.695V2250.22ZM746.818 2269.11L745.894 2270.33H744.044L742.194 2265.44L744.044 2256.86L746.818 2260.54V2269.11ZM671.899 2325.42V2320.53H673.749L674.673 2325.42H671.899ZM670.976 2258.09L669.125 2253.19L670.976 2249.52H672.232L672.474 2258.89L671.53 2258.58L670.976 2258.09ZM463.791 442.487L464.715 441.264H465.642L473.039 432.695L486.914 420.45L497.089 415.556L498.939 410.658L502.639 408.209V405.76L504.486 404.537L513.737 393.519L520.465 385.725L521.135 386.172L530.386 375.154L535.01 371.482V377.603L532.236 394.741L524.835 399.639L525.297 399.945L522.062 402.088L494.315 424.125L486.816 429.568L485.99 429.02L475.816 436.366L468.415 441.264L463.791 443.713V442.487ZM550.735 293.126L549.808 299.247H546.108L545.184 295.575L550.735 293.126ZM559.059 302.922L560.909 305.367L559.983 310.265L558.133 309.043L559.059 302.922ZM570.157 291.904V304.145L569.234 305.367H567.383L565.533 293.126L570.157 291.904ZM568.307 285.78H570.157L571.081 288.228H568.307V285.78ZM689.184 266.892L690.108 265.67H691.958L693.808 270.564L691.958 279.137L689.184 275.462V266.892ZM764.103 210.577V215.471H762.253L761.329 210.577H764.103ZM765.03 277.911L766.877 282.809L765.03 286.48H763.771L763.529 277.109L764.472 277.419L765.03 277.911ZM638.602 252.948L638.796 257.585L638.602 257.622V252.948ZM797.4 2283.05L797.206 2278.42L797.4 2278.38V2283.05ZM418.008 430.857L416.619 432.695L408.295 444.936V446.162L401.821 451.056H396.27L395.347 448.611L403.671 440.038L410.145 433.805V435.144L413.845 431.469L418.14 430.332L418.008 430.857ZM396.27 425.348H398.12V422.899L403.671 418.001L406.445 419.227L398.12 430.246H396.735L395.544 429.195L396.27 425.348ZM413.845 403.311H417.546L416.619 405.76H413.845V403.311ZM309.33 1578.62L307.347 1580.19L307.48 1579.84L304.703 1581.06L295.455 1585.96V1587.19H293.605L294.531 1583.51L294.326 1583.38L294.478 1582.56L297.305 1581.06L297.575 1579.98L301.005 1577.39L309.33 1576.17V1578.62ZM80.8728 2411.12L75.3224 2416.02H74.3987L73.4722 2412.35L76.2489 2409.9L80.8728 2407.45V2411.12ZM125.268 1516.18L125.761 1516.5L119.718 1521.07H116.02L120.644 1513.73H126.195L125.268 1516.18ZM160.416 826.911H156.715V822.013H162.266L160.416 826.911ZM-66.1904 759.577L-67.1155 760.8L-74.5156 762.023H-79.1401V759.577L-75.4395 755.902L-69.891 744.884L-66.1904 746.11V759.577ZM262.158 504.926L265.858 501.255L270.482 500.028L269.555 503.703L264.008 508.598H262.158V504.926ZM312.104 458.403L316.728 455.954L312.104 462.075H310.253L312.104 458.403ZM338.927 442.487L338 444.936L337.076 442.487H338.927ZM422.17 397.19L424.944 394.741L428.644 393.519L424.02 399.639H422.17V397.19ZM1355.13 124.878L1360.68 119.977H1361.6L1362.53 123.652L1359.75 126.101L1355.13 128.55V124.878ZM1310.73 1019.82L1310.24 1019.5L1316.28 1014.93H1319.98L1315.36 1022.27H1309.81L1310.73 1019.82ZM1551.22 1753.16L1552.14 1745.82L1546.59 1744.59L1536.41 1749.49L1529.94 1750.71L1539.19 1743.37L1554.91 1728.68L1556.76 1723.78L1552.14 1725.01L1545.67 1726.23L1544.74 1725.01L1541.04 1726.23L1525.32 1745.82L1516.99 1751.94L1504.04 1758.06L1505.89 1740.92L1506.82 1726.23L1503.12 1720.11L1492.95 1710.31L1483.69 1705.42L1475.37 1704.19L1467.05 1706.64L1455.02 1712.76L1451.32 1718.88L1444.85 1721.33H1437.45L1432.83 1718.88L1427.27 1716.44L1426.35 1722.56L1380.1 1725.01L1372.7 1723.78L1356.98 1718.88L1340.33 1711.54L1321.83 1702.97H1309.81L1296.86 1705.42L1291.31 1704.19L1292.24 1700.52L1298.71 1693.17L1311.66 1680.93L1324.61 1672.36L1332.93 1666.24L1352.36 1655.22L1361.6 1652.77L1376.4 1667.46L1381.03 1673.58L1385.65 1676.03V1672.36L1381.95 1668.69L1377.33 1662.57L1368.08 1652.77L1367.15 1649.1L1373.63 1646.65L1392.13 1645.43L1395.83 1641.75L1394.9 1638.08L1382.88 1629.51L1379.18 1627.06V1624.61L1376.4 1619.72L1375.48 1611.15L1381.03 1605.02L1401.38 1591.56L1413.4 1581.77L1418.95 1573.2L1418.03 1567.07L1414.33 1564.62L1408.78 1562.17L1409.7 1554.83L1417.1 1548.71L1439.3 1536.47L1443.92 1531.57L1452.25 1530.34L1461.5 1527.9L1463.35 1523L1460.57 1519.33L1445.77 1518.1V1499.74L1446.7 1489.94L1450.4 1478.92L1456.87 1475.25L1481.84 1476.47L1485.54 1477.7H1494.79L1497.57 1475.25L1496.64 1471.58L1488.32 1470.35L1452.25 1467.91L1449.47 1464.23L1443.92 1461.78L1438.37 1456.89L1435.6 1454.44L1434.49 1453.95L1425.42 1447.09L1401.38 1438.53L1381.95 1434.85H1363.45L1329.23 1433.63L1324.61 1431.18L1314.43 1422.61L1300.56 1420.16H1289.46L1282.06 1421.38L1282.99 1416.49L1289.46 1404.24L1300.56 1389.55L1309.81 1378.54L1324.61 1362.62L1337.56 1354.05L1352.36 1347.93L1371.78 1340.58L1389.35 1330.79L1404.15 1319.77L1407.85 1311.2L1413.4 1307.53L1419.87 1308.75L1424.5 1313.65L1430.97 1314.87L1436.52 1311.2L1440.22 1305.08V1297.73L1436.52 1291.61L1435.6 1284.27L1439.3 1276.92L1432.83 1270.8L1431.9 1264.68L1441.15 1256.11V1249.98L1443.92 1246.31H1451.32L1465.2 1249.98L1464.27 1246.31L1459.65 1245.09L1450.4 1240.19L1449.47 1236.52L1453.17 1231.62V1221.83L1459.65 1218.16L1460.57 1213.26L1454.1 1205.91L1451.32 1199.79H1458.72L1463.35 1202.24L1472.6 1208.36L1478.14 1209.58V1207.14L1471.67 1202.24L1459.65 1196.12L1443.92 1185.1L1438.37 1176.53L1429.12 1167.96V1160.61L1422.65 1158.17L1418.95 1152.04L1411.55 1153.27L1406 1154.49L1405.08 1150.82L1406.93 1143.47H1408.78L1415.25 1136.13V1118.99L1414.33 1115.31L1410.63 1109.19L1405.08 1104.3L1393.98 1099.4L1386.58 1098.18L1385.65 1085.93L1383.8 1079.81L1380.1 1078.59L1379.98 1078.8L1379.18 1078.59L1375.48 1082.26L1368.08 1084.71L1362.53 1093.28H1354.21L1353.28 1094.5L1355.13 1100.62L1341.26 1103.07L1336.63 1104.3L1331.24 1107.15L1329.23 1107.97L1328.6 1108.55L1327.38 1109.19L1321.22 1115.31L1317.21 1118.99L1309.81 1128.78L1301.48 1142.25L1292.24 1158.17L1287.61 1159.39L1282.99 1161.84L1277.44 1163.06V1160.61H1279.29L1285.76 1155.72L1287.61 1149.6H1282.06L1277.44 1153.27L1270.04 1155.72L1267.26 1159.39L1261.25 1160.61H1258.94L1255.24 1161.84L1247.84 1166.12L1238.22 1170.9L1229.34 1172.86L1227.49 1167.96L1236.74 1161.84L1242.29 1155.72L1251.54 1152.04V1148.37L1247.84 1149.6L1248.76 1143.47L1244.14 1139.8V1136.13H1245.99L1262.64 1126.33L1277.44 1118.99L1285.76 1116.54L1284.83 1118.99L1285.76 1122.66H1291.31L1294.09 1118.99L1310.73 1106.74L1325.53 1093.28L1337.56 1084.71L1342.18 1078.59L1350.51 1072.47L1373.63 1060.22L1383.8 1054.1L1388.43 1045.53L1394.9 1035.74L1405.08 1027.17L1400.45 1021.05H1402.3L1417.1 1011.25L1416.18 1006.36L1418.95 1005.13L1420.8 996.56L1425.42 995.338L1430.05 994.111L1430.97 989.213L1426.35 986.764L1425.42 981.87L1430.05 979.421L1431.9 974.523L1435.6 968.403H1440.22L1445.77 970.852L1452.25 972.074L1451.32 968.403L1449.47 963.505L1453.17 959.833V953.709L1450.4 951.264L1449.84 951.506L1449.47 951.264L1447.62 952.486L1440.22 956.158L1438.37 958.607L1430.05 962.282L1424.5 968.403L1418.03 967.176H1411.55L1407.85 970.852L1401.38 972.074L1400.91 972.686L1399.44 973.077L1394.9 972.074H1388.43H1387.5L1384.73 973.301L1373.63 980.644L1358.83 989.213L1353.28 990.44L1354.21 985.542H1348.66L1340.33 987.991L1339.41 991.662H1336.63L1327.38 999.009L1320.91 1002.68L1309.81 1010.03L1303.33 1011.25L1299.64 1013.7V1011.25H1301.48L1303.33 1006.36L1312.58 1002.68L1314.43 997.783L1308.88 996.56L1307.03 1001.46H1303.33H1301.48L1292.24 1005.13V1002.68L1304.26 995.338L1317.21 985.542V981.87L1319.98 980.644V976.972L1316.28 975.746L1315.36 980.644L1310.73 981.87H1302.41V979.421L1306.11 976.972V974.523L1295.94 976.972L1296.86 973.301L1301.48 969.625L1309.81 961.056L1325.53 950.037L1324.61 946.366H1318.13L1312.58 948.815L1304.26 950.037V946.366H1306.11L1306.9 945.665L1308.88 945.139L1312.58 941.468L1320.91 937.796L1329.23 930.449L1342.18 921.88V915.759H1344.03L1344.95 920.653L1343.1 925.551H1345.88L1346.81 924.329L1350.27 922.797L1357.91 921.88L1361.6 919.431L1366.23 916.982L1373.63 914.533V910.861H1369L1367.15 912.084L1357.91 914.533L1352.36 913.31L1355.13 907.19L1362.53 905.964L1363.45 902.292L1359.75 901.066L1360.68 896.171L1362.53 894.945L1364.38 888.824L1369 883.927L1369.93 880.255L1363.45 876.58V874.134L1369.93 869.236L1370.85 864.339H1362.53L1363.45 860.667L1369.93 858.218L1370.85 854.543L1368.08 853.32L1369 849.649L1367.15 847.199L1368.08 839.853H1365.3L1360.68 842.302L1356.06 848.422L1352.36 847.199L1346.81 845.973L1344.95 849.649L1345.88 853.32L1355.13 852.097L1351.43 856.992L1349.58 858.218L1340.33 864.339L1319.06 877.806L1310.73 881.478V879.029H1312.58L1316.28 874.134L1312.58 871.685L1308.58 870.053L1307.03 869.236L1302.96 867.768L1300.56 866.788L1300.07 866.724L1296.86 865.561L1294.09 865.93L1291.31 865.561L1289.36 866.556L1287.61 866.788L1281.14 870.742L1279.29 871.685L1268.72 877.806H1268.19L1258.01 883.927L1245.06 891.273L1240.44 893.722L1239.88 894.211L1238.59 894.945L1234.89 897.394L1234.39 897.677L1233.97 897.394L1228.41 901.066L1225.64 903.515L1223.79 904.741L1213.62 909.635L1211.77 904.741L1208.99 902.292L1218.24 897.394L1227.49 896.171V890.047L1225.64 887.598L1212.69 893.722L1198.82 898.616L1196.04 901.066L1186.79 905.964L1188.64 899.843L1196.97 892.496L1204.37 885.153L1206.22 880.255L1201.59 881.478L1202.52 879.029L1209.92 874.134L1223.79 864.339L1225.64 863.116L1230.26 860.052L1235.82 856.992L1251.54 845.973L1253.39 844.751L1271.89 834.955L1293.16 825.163L1311.66 817.816L1331.08 808.024L1335.32 805.403L1335.71 805.575L1344.95 799.45L1344.03 795.779L1336.63 797.005L1329.23 795.779L1325.27 799.45H1324.61L1319.98 804.348L1307.96 806.797L1295.94 809.246L1282.06 812.918H1280.21L1277.44 814.144L1273.74 816.593H1272.81L1270.04 819.042L1259.86 826.385L1246.91 832.506H1239.52L1238.59 834.955L1233.97 838.63H1227.49L1227.03 838.831L1225.64 838.63L1221.94 841.079L1210.84 844.751L1200.67 849.649L1185.87 859.441L1177.55 864.339L1162.75 866.788V864.339H1164.6L1168.29 861.89L1173.84 858.218L1180.32 854.543L1194.19 848.422L1205.52 839.853L1220.09 831.283L1239.52 821.487L1253.39 816.593L1275.59 812.918L1282.06 810.469L1297.79 803.126L1319.06 789.658L1333.86 779.862L1338.48 773.742L1366.23 751.705L1386.58 737.015L1401.38 723.547L1404.15 717.427L1403.23 712.529L1404.15 707.631L1408.78 703.959L1422.65 700.284L1425.42 696.613V686.82L1427.27 680.696L1428.2 672.127L1426.09 669.678H1426.35L1420.8 663.557L1421.72 657.437L1429.12 652.539L1432.83 648.867L1434.67 641.52L1430.05 635.4V629.279L1430.97 628.053L1436.52 624.381L1434.67 619.483V610.914L1436.52 598.669L1441.15 586.428L1447.62 577.858L1449.47 572.96H1451.32L1456.87 564.391L1466.12 558.27L1467.05 553.372L1458.72 550.923L1457.8 548.475H1460.57L1472.6 543.577L1477.22 538.682V531.336L1474.45 527.664L1467.97 523.989H1458.72L1454.1 527.664L1449.47 528.886L1448.55 523.989V514.197L1452.25 488.484L1457.8 478.692L1456.87 472.572L1452.25 468.896V462.776V460.327L1451.57 460.103L1451.32 459.104H1435.6L1415.25 462.776L1405.08 466.447L1390.28 473.794L1384.73 479.915H1377.33L1366.23 475.021L1354.21 473.794L1352.36 468.896L1349.58 465.225L1346.17 464.774L1345.88 464.002H1340.33L1334.78 467.674L1330.16 465.225H1323.68L1302.41 464.002L1301.48 455.429L1298.71 451.757L1290.39 446.859H1275.59L1240.44 451.757L1237.67 452.984L1221.94 457.878L1194.19 464.002H1184.94L1183.1 462.776L1176.62 464.002L1158.12 465.225L1159.05 461.553L1163.67 454.206L1171.99 448.086L1183.1 440.739L1188.64 424.823L1189.57 413.804L1186.79 411.355L1181.25 408.91V405.234L1184.02 392.993L1193.27 370.956L1201.59 356.263L1206.22 344.021L1207.14 319.536L1208.99 308.517L1214.54 293.827L1223.79 284.031L1237.67 274.235L1261.71 259.545L1282.99 247.304L1295.94 237.509L1308.88 225.267L1315.36 217.92L1316.28 211.8L1313.51 208.128L1312.58 203.23L1314.43 200.781L1324.61 192.212L1340.33 182.416L1347.73 175.073L1348.66 167.726L1340.33 156.708V150.587L1342.18 146.912L1349.58 145.689L1358.83 148.138H1369L1376.4 144.466L1381.03 139.569L1381.95 130.999L1380.1 127.324L1376.4 124.878L1379.18 117.531L1377.33 110.185H1380.1L1381.03 106.513L1375.48 101.615L1369.93 100.389L1366.23 107.736L1367.15 115.083L1370.85 117.531L1371.78 121.203H1369L1364.38 117.531L1359.75 115.083L1362.53 94.2683L1365.78 86.7424L1368.54 85.6987H1371.78L1372.7 90.5967L1374.55 93.0457L1381.95 99.1663L1396.75 105.287L1401.38 106.513L1397.68 101.615L1385.65 91.8193L1381.03 90.5967L1382.37 88.2261L1388.43 89.374L1394.9 93.0457L1409.7 102.838L1415.25 106.513L1418.95 113.856L1425.42 115.083L1426.35 112.634L1427.27 105.287L1425.42 102.838L1424.5 101.615L1417.72 96.7173L1416.18 95.4946L1415.78 95.3196L1414.33 94.2683L1398.6 86.925L1388.43 80.8008L1374.55 73.4575L1366.23 69.7822L1360.68 59.9902L1354.21 51.4209L1351.85 49.4714L1351.43 48.9717L1348.66 46.8284L1339.41 39.176L1331.31 34.8931L1328.31 33.0554L1326.95 32.5857L1325.53 31.8291L1317.76 29.3838L1310.73 26.9348L1308.27 26.3906L1306.11 25.7085L1304.07 25.4661L1288.54 22.0369L1264.49 18.3652L1262.64 13.4673H1256.16L1255.24 9.79199L1248.76 4.89795L1236.74 0H1208.07L1189.57 2.44873L1185.28 3.48145L1184.02 3.67163L1183.97 3.79468L1169.22 7.34692L1143.32 15.9165L1117.42 28.1575L1089.68 42.8511L1052.68 59.9902L1019.38 74.6804L1005.51 84.4724L986.086 97.9399L969.437 110.185L946.314 128.55L928.844 141.268L919.798 146.505L913.386 150.095L900.066 156.708L890.818 157.934L887.118 148.138L884.344 151.81L881.57 161.605L879.72 164.054L877.87 153.032L875.093 106.513L873.246 104.064L872.319 107.736H870.469V105.287L865.845 63.6619L863.071 46.5227H861.221V78.3518L860.295 83.2498V91.8193L861.221 96.7173V105.287L856.597 135.893V175.073L851.047 177.522L844.572 183.642L836.248 184.865L835.322 183.642L831.624 164.054L831.286 163.238L830.698 160.379L829.774 159.563L826.074 150.587L819.599 148.138L816.823 149.361L814.049 156.708H812.199L811.275 153.032L809.425 134.671L808.499 133.444L803.875 132.222L805.725 122.429L802.951 119.977L802.024 115.083V105.287L801.101 104.064L797.4 97.9399L798.327 106.513L799.251 121.203V146.912L797.4 156.708L791.85 160.379L790.926 166.5L790.003 177.522V199.555H785.376L782.602 192.212L779.828 190.986L779.363 192.212H778.902L778.716 193.927L777.978 195.883L777.282 201.851L777.051 202.004L775.201 214.249H771.504L768.727 209.351L769.654 203.23L772.427 198.333V188.536L771.504 183.642H777.978L780.752 178.744L781.678 153.032L777.978 146.912L776.128 115.083L775.201 113.856L771.504 112.634L770.577 115.083V133.444L771.504 148.138L769.654 155.481L762.253 154.259L761.329 162.828L759.479 182.416L757.629 186.088V210.577L756.702 221.592L753.929 224.041L750.228 222.818L747.455 215.471L745.604 202.004L742.83 190.986V178.744L740.98 172.624L739.13 145.689L738.206 143.24H736.356L735.43 145.689L734.506 168.948H732.656L731.732 162.828L729.882 140.791L728.956 138.342L725.255 139.569L724.332 171.397H722.482L721.558 173.846V188.536L717.858 190.986L715.081 194.661L713.234 208.128L705.833 200.781L704.599 201.188L703.983 200.781L698.432 203.23L696.585 208.128V236.286L702.133 238.731L700.282 244.855L695.659 243.633L693.808 249.753V260.771L689.184 259.545V241.184L686.41 237.509L683.634 238.731V276.453L682.074 261.297L681.147 258.848L678.373 257.622L676.523 262.52L675.6 279.659L676.616 287.744L671.612 290.152L668.835 292.601L667.295 295.05L665.425 297.171V289.455L669.125 285.78L668.199 279.659H659.292L659.587 264.443L659.314 260.112L660.801 250.275H658.695L658.661 249.753L647.563 221.592L644.789 220.369L642.939 233.837L640.162 239.957L640.131 240.062L639.526 239.257L637.678 230.687L635.828 228.242L633.55 228.615L627.504 227.015V220.895L628.427 219.668V213.548L622.877 208.654L619.18 209.876L621.03 214.774V220.895L617.329 228.242H615.479H610.855L609.929 229.464L608.079 235.585L602.531 246.604L600.681 257.622L603.455 267.418V274.761L600.681 277.21L602.531 280.885L601.604 285.78L596.98 290.677L593.28 291.904V287.006L596.054 283.33L597.904 278.436L593.28 277.21L590.506 274.761V263.742L589.58 257.622L586.806 258.848H579.408V250.275H576.631L572.931 262.52L565.533 267.418L564.607 272.312H560.909L553.509 274.761L548.885 282.108L543.334 285.78L538.71 291.904L532.236 294.353L522.985 305.367L509.113 317.612V320.061L513.737 318.835L522.062 315.163V318.835L513.737 333.529L514.661 335.978L523.912 332.302L531.31 324.959L540.56 318.835L543.334 320.061V328.631L542.41 333.529L534.086 339.649V344.547H535.936L535.01 348.219L529.651 351.976L529.459 351.89L519.288 359.237V355.565L517.438 353.117L510.963 350.667L510.037 356.788L511.887 365.358L514.661 366.584L509.113 367.807L497.089 375.154H491.538L483.214 382.5L467.492 393.519L463.791 394.741H460.091L458.858 395.83L458.241 395.964L450.187 403.49L449.917 403.311L442.519 410.658L433.268 419.227L423.093 432.695L419.396 433.917V430.246L421.243 427.797L422.17 422.899H420.32L422.786 418.817L424.02 418.001L438.818 405.76L441.592 397.19V388.621L439.742 386.172L436.045 387.395V387.57L433.268 388.621L434.194 386.172L440.669 380.051L454.541 367.807L474.889 351.89V349.445H476.74L480.44 344.547L477.666 343.321L470.266 349.445L460.091 356.788L448.993 366.584L428.644 386.172L411.995 400.862L398.12 409.432L387.946 414.329L378.698 420.45L376.848 425.348L373.148 430.246L363.9 440.038L354.649 451.056L346.324 452.283L340.777 455.954L336.747 462.354L329.808 468.199L325.052 471.871L315.804 480.44L311.281 484.183L311.18 484.112L301.005 492.685L299.155 501.255L296.379 502.477L286.207 511.047L274.182 520.843L269.094 525.74L259.384 534.31L252.907 533.084L234.411 542.88L236.681 537.87L240.62 533.96L245.199 530.228L255.683 523.292L273.256 509.824L287.131 495.13L298.229 487.787L307.48 479.218L319.504 466.973L335.226 453.505L339.85 447.385L344.477 443.713L349.101 438.815L352.582 436.221L352.801 436.366L355.02 434.409L363.9 427.797L373.148 422.899L374.998 416.779L378.698 413.107L387.946 405.76L399.971 395.964L401.821 394.741L403.671 393.027L413.845 384.946L417.991 380.957L418.469 381.274L424.02 375.154L428.644 371.482L433.268 366.584V364.135H430.494L426.794 366.584L424.944 371.482L420.32 372.705L419.79 373.756L419.396 373.927L411.995 377.603H405.521L404.595 376.376H398.12L392.573 380.051L390.723 386.172L386.099 387.395V389.844H393.496V393.519L385.172 399.639L375.924 406.982L372.224 411.88L364.823 416.779L352.801 418.001L350.951 419.227L348.175 425.348L345.401 431.469L341.7 427.797L340.777 425.348L343.551 420.45L349.101 415.556L354.649 410.658L365.75 399.639L372.224 388.621L377.774 386.172L385.172 376.376L388.872 371.482L397.197 369.033L404.595 360.463L406.445 354.339L409.221 349.445L414.769 343.321L411.072 342.098L409.221 345.77L400.897 353.117L392.573 358.011L387.946 364.135H382.398L377.774 366.584L373.212 371.523L373.148 371.482L367.6 377.603L359.276 381.274L357.425 388.621L359.276 389.844V393.519L353.725 395.964L350.951 398.413L346.324 404.537L340.777 406.982V400.862H337.076L330.602 405.76H323.202V408.209H321.351L320.428 413.107H323.202V416.779L316.728 418.001L307.48 416.779L301.005 419.227H293.605L292.681 422.899L288.981 429.02H278.806V426.574H276.032V430.246L274.182 435.144L267.708 433.917L261.234 429.02L260.307 432.695L264.008 444.936L260.307 446.162L255.683 452.283L247.359 455.954H240.885L239.035 452.283L228.86 453.505L198.337 459.63L190.939 462.075L186.276 464.818L185.389 464.524L182.615 466.973L183.538 471.871H200.187L208.511 470.648V470.573L215.912 469.422L227.472 466.973H229.784L239.035 464.524L238.108 466.973L228.86 475.542L221.46 484.112L216.836 486.561V482.889L214.062 479.218H209.438L208.883 481.421L206.661 482.889L197.413 491.459L190.939 496.357L188.348 504.356L187.106 505.452L180.765 508.598L175.214 511.047L158.566 519.616L142.843 525.74V530.635H151.168L150.241 533.084L146.541 535.533L137.293 539.204L100.295 550.226L83.6467 557.57L61.4476 569.814L38.3253 585.727V585.902L20.7525 599.194L3.1785 613.888L-10.6952 627.356L-18.095 635.925L-28.2692 646.944L-40.2924 662.856L-48.6176 675.101L-58.7918 692.24L-66.1904 713.054L-69.891 717.949L-80.0652 719.175L-91.1645 726.522V731.416L-84.6898 732.642L-86.5388 738.763L-85.6149 746.11L-82.8393 747.333L-81.9142 751.004H-83.7647L-87.4639 757.128V764.472L-90.2394 765.698L-93.0135 766.921L-98.5049 770.749L-102.263 773.041L-107.658 777.123L-110.588 779.165L-110.463 779.247L-115.212 782.837L-116.137 790.184L-110.588 791.406L-100.414 786.509L-93.9386 785.286L-103.188 792.633L-118.912 807.323L-120.762 812.221L-116.137 810.994L-109.662 809.772L-108.737 810.994L-105.038 809.772L-89.3143 790.184L-80.9892 784.06L-68.0409 777.939L-69.891 795.078L-70.815 809.772L-67.1155 815.892L-56.9416 825.688L-47.6925 830.582L-39.3673 831.809L-31.0436 829.36L-19.0201 823.239L-15.3197 817.115L-8.84586 814.67H-1.44606L3.1785 817.115L8.72813 819.564L9.65321 813.443L55.8999 810.994L63.2977 812.221L79.0227 817.115L95.6713 824.462L114.17 833.031H126.195L139.143 830.582L144.691 831.809L143.767 835.48L137.293 842.827L124.345 855.068L111.393 863.638L103.069 869.762L83.6467 880.781L74.3987 883.226L59.6002 868.536L54.9734 862.415L50.3494 859.966V863.638L54.0497 867.313L58.6738 873.434L67.9245 883.226L68.8482 886.901L62.3741 889.35L43.8753 890.573L40.1758 894.244L41.1014 897.92L53.1232 906.489L56.8236 908.938V911.387L59.6002 916.281L60.5239 924.854L54.9734 930.975L34.6262 944.443L22.6015 954.235L17.0519 962.804L17.9772 968.928L21.6764 971.377L27.2261 973.823L26.301 981.169L18.9023 987.29L-3.29623 999.535L-7.92078 1004.43L-16.2448 1005.66L-25.4939 1008.1L-27.3441 1013L-24.5686 1016.67L-9.7701 1017.9V1036.26L-10.6952 1046.06L-14.3947 1057.08L-20.8694 1060.75L-45.842 1059.53L-49.5415 1058.3H-58.7918L-61.5659 1060.75L-60.6408 1064.42L-52.317 1065.65L-16.2448 1068.09L-13.4704 1071.77L-7.92078 1074.22L-2.37113 1079.11L0.404099 1081.56L1.51421 1082.05L10.5783 1088.91L34.6262 1097.47L54.0497 1101.15H72.5486L106.769 1102.37L111.393 1104.82L121.568 1113.39L135.443 1115.84H146.541L153.942 1114.62L153.015 1119.51L146.541 1131.76L135.443 1146.45L126.195 1157.46L111.393 1173.38L98.4452 1181.95L83.6467 1188.07L64.2242 1195.42L46.6491 1205.21L31.8506 1216.23L28.1512 1224.8L22.6015 1228.47L16.1268 1227.25L11.5022 1222.35L5.02866 1221.13L-0.520988 1224.8L-4.22045 1230.92V1238.27L-0.520988 1244.39L0.404099 1251.73L-3.29623 1259.08L3.1785 1265.2L4.10358 1271.32L-5.14555 1279.89V1286.02L-7.92078 1289.69H-15.3197L-29.1942 1286.02L-28.2692 1289.69L-23.6446 1290.91L-14.3947 1295.81L-13.4704 1299.48L-17.1699 1304.38V1314.17L-23.6446 1317.84L-24.5686 1322.74L-18.095 1330.09L-15.3197 1336.21H-22.7195L-27.3441 1333.76L-36.5932 1327.64L-42.1428 1326.41V1328.86L-35.6681 1333.76L-23.6446 1339.88L-7.92078 1350.9L-2.37113 1359.47L6.87769 1368.04V1375.39L13.3527 1377.83L17.0519 1383.95L24.452 1382.73L30.0016 1381.51L30.9267 1385.18L29.0765 1392.52H27.2261L20.7525 1399.87V1417.01L21.6764 1420.69L25.377 1426.81L30.9267 1431.7L42.0251 1436.6L49.4257 1437.82L50.3494 1450.07L52.1996 1456.19L55.8999 1457.41L56.021 1457.2L56.8236 1457.41L60.5239 1453.74L67.9245 1451.29L73.4722 1442.72H81.7965L82.723 1441.5L80.8728 1435.38L94.7448 1432.93L99.3717 1431.7L104.767 1428.85L106.769 1428.03L107.403 1427.45L108.62 1426.81L114.787 1420.69L118.794 1417.01L126.195 1407.22L134.519 1393.75L143.767 1377.83L148.391 1376.61L153.015 1374.16L158.566 1372.94V1375.39H156.715L150.241 1380.28L148.391 1386.4H153.942L158.566 1382.73L165.966 1380.28L168.74 1376.61L174.752 1375.39H177.064L180.765 1374.16L188.162 1369.88L197.782 1365.1L206.661 1363.14L208.511 1368.04L199.263 1374.16L193.713 1380.28L184.465 1383.95V1387.63L188.162 1386.4L187.239 1392.52L191.863 1396.2V1399.87H190.013L173.364 1409.67L158.566 1417.01L150.241 1419.46L151.168 1417.01L150.241 1413.34H144.691L141.917 1417.01L125.268 1429.26L110.47 1442.72L98.4452 1451.29L93.8212 1457.41L85.4969 1463.53L62.3741 1475.78L52.1996 1481.9L47.5756 1490.47L41.1014 1500.26L30.9267 1508.83L35.5513 1514.95H33.7008L18.9023 1524.75L19.8274 1529.64L17.0519 1530.87L15.2029 1539.44L10.5783 1540.66L5.95261 1541.89L5.02866 1546.79L9.65321 1549.23L10.5783 1554.13L5.95261 1556.58L4.10358 1561.48L0.404099 1567.6H-4.22045L-9.7701 1565.15L-16.2448 1563.93L-15.3197 1567.6L-13.4704 1572.5L-17.1699 1576.17V1582.29L-14.3947 1584.74L-13.8402 1584.49L-13.4704 1584.74L-11.6202 1583.51L-4.22045 1579.84L-2.37113 1577.39L5.95261 1573.72L11.5022 1567.6L17.9772 1568.82H24.452L28.1512 1565.15L34.6262 1563.93L35.088 1563.31L36.56 1562.92L41.1014 1563.93H47.5756H48.4993L51.2759 1562.7L62.3741 1555.36L77.1725 1546.79L82.723 1545.56L81.7965 1550.46H87.347L95.6713 1548.01L96.595 1544.34H99.3717L108.62 1536.99L115.094 1533.32L126.195 1525.97L132.669 1524.75L136.366 1522.3V1524.75H134.519L132.669 1529.64L123.418 1533.32L121.568 1538.21L127.118 1539.44L128.969 1534.54H132.669H134.519L143.767 1530.87V1533.32L131.742 1540.66L118.794 1550.46V1554.13L116.02 1555.36V1559.03L119.718 1560.25L120.644 1555.36L125.268 1554.13H133.593V1556.58L129.892 1559.03V1561.48L140.067 1559.03L139.143 1562.7L134.519 1566.37L126.195 1574.94L110.47 1585.96L111.393 1589.63H117.87L123.418 1587.19L131.742 1585.96V1589.63H129.892L129.101 1590.33L127.118 1590.86L123.418 1594.53L115.094 1598.2L106.769 1605.55L93.8212 1614.12V1620.24H91.971L91.0473 1615.34L92.8975 1610.45H90.1208L89.1972 1611.67L85.7278 1613.2L78.0962 1614.12L74.3987 1616.57L69.7719 1619.02L62.3741 1621.47V1625.14H66.998L68.8482 1623.92L78.0962 1621.47L83.6467 1622.69L80.8728 1628.81L73.4722 1630.04L72.5486 1633.71L76.2489 1634.93L75.3224 1639.83L73.4722 1641.05L71.6221 1647.18L66.998 1652.07L66.0744 1655.74L72.5486 1659.42V1661.87L66.0744 1666.76L65.1479 1671.66H73.4722L72.5486 1675.33L66.0744 1677.78L65.1479 1681.45L67.9245 1682.68L66.998 1686.35L68.8482 1688.8L67.9245 1696.15H70.6984L75.3224 1693.7L79.9464 1687.58L83.6467 1688.8L89.1972 1690.03L91.0473 1686.35L90.1208 1682.68L80.8728 1683.9L84.5732 1679.01L86.4205 1677.78L95.6713 1671.66L116.944 1658.19L125.268 1654.52V1656.97H123.418L119.718 1661.87L123.418 1664.31L127.425 1665.95L128.969 1666.76L133.038 1668.23L135.443 1669.21L135.93 1669.28L139.143 1670.43L141.917 1670.07L144.691 1670.43L146.642 1669.44L148.391 1669.21L154.865 1665.26L156.715 1664.31L167.287 1658.19H167.816L177.988 1652.07L190.939 1644.73L195.563 1642.28L196.118 1641.79L197.413 1641.05L201.114 1638.61L201.609 1638.32L202.037 1638.61L207.588 1634.93L210.362 1632.49L212.212 1631.26L222.386 1626.36L224.236 1631.26L227.01 1633.71L217.762 1638.61L208.511 1639.83V1645.95L210.362 1648.4L223.31 1642.28L237.185 1637.38L239.959 1634.93L249.209 1630.04L247.359 1636.16L239.035 1643.5L231.634 1650.85L229.784 1655.74L234.411 1654.52L233.484 1656.97L226.087 1661.87L212.212 1671.66L210.362 1672.88L205.738 1675.94L200.187 1679.01L184.465 1690.03L182.615 1691.25L164.116 1701.05L142.843 1710.84L124.345 1718.18L104.919 1727.98L100.681 1730.6L100.295 1730.43L91.0473 1736.55L91.971 1740.22L99.3717 1738.99L106.769 1740.22L110.735 1736.55H111.393L116.02 1731.65L128.042 1729.2L140.067 1726.75L153.942 1723.08H155.792L158.566 1721.86L162.266 1719.41H163.19L165.966 1716.96L176.141 1709.61L189.089 1703.49H196.487L197.413 1701.05L202.037 1697.37H208.511L208.973 1697.16L210.362 1697.37L214.062 1694.92L225.16 1691.25L235.335 1686.35L250.133 1676.56L258.457 1671.66L273.256 1669.21V1671.66H271.406L267.708 1674.11L262.158 1677.78L255.683 1681.45L241.809 1687.58L230.48 1696.15L215.912 1704.72L196.487 1714.51L182.615 1719.41L160.416 1723.08L153.942 1725.53L138.217 1732.87L116.944 1746.34L102.145 1756.14L97.5215 1762.26L69.7719 1784.3L49.4257 1798.99L34.6262 1812.45L31.8506 1818.57L32.7757 1823.47L31.8506 1828.37L27.2261 1832.04L13.3527 1835.71L10.5783 1839.39V1849.18L8.72813 1855.3L7.80305 1863.87L9.91708 1866.32H9.65321L15.2029 1872.44L14.2778 1878.56L6.87769 1883.46L3.1785 1887.13L1.32806 1894.48L5.95261 1900.6V1906.72L5.02866 1907.95L-0.520988 1911.62L1.32806 1916.52V1925.09L-0.520988 1937.33L-5.14555 1949.57L-11.6202 1958.14L-13.4704 1963.04H-15.3197L-20.8694 1971.61L-30.1185 1977.73L-31.0436 1982.63L-22.7195 1985.08L-21.7944 1987.53H-24.5686L-36.5932 1992.42L-41.2178 1997.32V2004.66L-38.4434 2008.34L-31.9687 2012.01H-22.7195L-18.095 2008.34L-13.4704 2007.11L-12.5453 2012.01V2021.8L-16.2448 2047.51L-21.7944 2057.31L-20.8694 2063.43L-16.2448 2067.1V2073.22V2075.67L-15.5726 2075.89L-15.3197 2076.9H0.404099L20.7525 2073.22L30.9267 2069.55L45.7254 2062.21L51.2759 2056.09H58.6738L69.7719 2060.98L81.7965 2062.21L83.6467 2067.1L86.4205 2070.78L89.828 2071.23L90.1208 2072H95.6713L101.222 2068.33L105.846 2070.78H112.32L133.593 2072L134.519 2080.57L137.293 2084.24L145.617 2089.14H160.416L195.563 2084.24L198.337 2083.02L214.062 2078.12L241.809 2072H251.059L252.907 2073.22L259.384 2072L277.883 2070.78L276.956 2074.45L272.332 2081.79L264.008 2087.91L252.907 2095.26L247.359 2111.18L246.433 2122.2L249.209 2124.64L254.757 2127.09V2130.77L251.983 2143.01L242.735 2165.04L234.411 2179.73L229.784 2191.98L228.86 2216.46L227.01 2227.48L221.46 2242.17L212.212 2251.97L198.337 2261.76L174.29 2276.45L153.015 2288.7L140.067 2298.49L127.118 2310.73L120.644 2318.08L119.718 2324.2L122.494 2327.87L123.418 2332.77L121.568 2335.22L111.393 2343.79L95.6713 2353.58L88.2707 2360.93L87.347 2368.27L95.6713 2379.29V2385.41L93.8212 2389.09L86.4205 2390.31L77.1725 2387.86H66.998L59.6002 2391.53L54.9734 2396.43L54.0497 2405L55.8999 2408.68L59.6002 2411.12L56.8236 2418.47L58.6738 2425.81H55.8999L54.9734 2429.49L60.5239 2434.39L66.0744 2435.61L69.7719 2428.26L68.8482 2420.92L65.1479 2418.47L64.2242 2414.8H66.998L71.6221 2418.47L76.2489 2420.92L73.4722 2441.73L70.2253 2449.25L67.4599 2450.3H64.2242L63.2977 2445.4L61.4476 2442.95L54.0497 2436.83L39.2507 2430.71L34.6262 2429.49L38.3253 2434.39L50.3494 2444.18L54.9734 2445.4L53.633 2447.77L47.5756 2446.63L41.1014 2442.95L26.301 2433.16L20.7525 2429.49L17.0519 2422.14L10.5783 2420.92L9.65321 2423.37L8.72813 2430.71L10.5783 2433.16L11.5022 2434.39L18.285 2439.28L19.8274 2440.5L20.2233 2440.68L21.6764 2441.73L37.4003 2449.08L47.5756 2455.2L61.4476 2462.54L69.7719 2466.22L75.3224 2476.01L81.7965 2484.58L84.1508 2486.53L84.5732 2487.03L87.347 2489.17L96.595 2496.82L104.688 2501.11L107.696 2502.94L109.048 2503.41L110.47 2504.17L118.239 2506.62L125.268 2509.06L127.735 2509.61L129.892 2510.29L131.928 2510.53L147.467 2513.96L171.514 2517.63L173.364 2522.53H179.838L180.765 2526.2L187.239 2531.1L199.263 2536H227.934L246.433 2533.55L250.719 2532.52L251.983 2532.33L252.028 2532.21L266.782 2528.65L292.681 2520.08L318.578 2507.84L346.324 2493.15L383.322 2476.01L416.619 2461.32L430.494 2451.52L449.917 2438.06L466.565 2425.81L489.688 2407.45L507.159 2394.73L516.204 2389.49L522.616 2385.9L535.936 2379.29L545.184 2378.07L548.885 2387.86L551.659 2384.19L554.432 2374.39L556.282 2371.95L558.133 2382.96L560.909 2429.49L562.757 2431.94L563.683 2428.26H565.533V2430.71L570.157 2472.34L572.931 2489.48H574.781V2457.64L575.708 2452.75V2444.18L574.781 2439.28V2430.71L579.408 2400.11V2360.93L584.956 2358.48L591.43 2352.36L599.754 2351.14L600.681 2352.36L604.378 2371.95L604.716 2372.76L605.305 2375.62L606.228 2376.44L609.929 2385.41L616.403 2387.86L619.18 2386.64L621.953 2379.29H623.803L624.727 2382.96L626.577 2401.33L627.504 2402.55L632.128 2403.78L630.278 2413.57L633.052 2416.02L633.978 2420.92V2430.71L634.902 2431.94L638.602 2438.06L637.678 2429.49L636.752 2414.8V2389.09L638.602 2379.29L644.152 2375.62L645.076 2369.5L646.003 2358.48V2336.44H650.627L653.4 2343.79L656.174 2345.01L656.639 2343.79H657.101L657.287 2342.07L658.024 2340.12L658.72 2334.15L658.951 2333.99L660.801 2321.75H664.499L667.275 2326.65L666.349 2332.77L663.575 2337.67V2347.46L664.499 2352.36H658.024L655.251 2357.26L654.327 2382.96L658.024 2389.09L659.875 2420.92L660.801 2422.14L664.499 2423.37L665.425 2420.92V2402.55L664.499 2387.86L666.349 2380.52L673.749 2381.74L674.673 2373.17L676.523 2353.58L678.373 2349.91V2325.42L679.3 2314.4L682.074 2311.96L685.774 2313.18L688.548 2320.53L690.398 2333.99L693.172 2345.01V2357.26L695.022 2363.38L696.872 2390.31L697.796 2392.76H699.646L700.573 2390.31L701.496 2367.05H703.346L704.273 2373.17L706.12 2395.21L707.047 2397.66L710.747 2396.43L711.671 2364.6H713.521L714.445 2362.15V2347.46L718.145 2345.01L720.921 2341.34L722.769 2327.87L730.169 2335.22L731.403 2334.81L732.02 2335.22L737.57 2332.77L739.417 2327.87V2299.71L733.87 2297.27L735.72 2291.14L740.344 2292.37L742.194 2286.25V2275.23L746.818 2276.45V2294.82L749.592 2298.49L752.369 2297.27V2259.55L753.929 2274.7L754.855 2277.15L757.629 2278.38L759.479 2273.48L760.403 2256.34L759.386 2248.26L764.39 2245.84L767.167 2243.4L768.707 2240.95L770.577 2238.83V2246.55L766.877 2250.22L767.803 2256.34H776.711L776.415 2271.56L776.688 2275.89L775.201 2285.72H777.308L777.341 2286.25L788.44 2314.4L791.213 2315.63L793.064 2302.16L795.84 2296.04L795.871 2295.94L796.477 2296.74L798.327 2305.31L800.174 2307.76L802.452 2307.38L808.499 2308.98V2315.11L807.575 2316.33V2322.45L813.125 2327.35L816.823 2326.12L814.976 2321.23V2315.11L818.673 2307.76H820.523H825.147L826.074 2306.53L827.924 2300.41L833.471 2289.4L835.322 2278.38L832.548 2268.58V2261.24L835.322 2258.79L833.471 2255.11L834.398 2250.22L839.022 2245.32L842.722 2244.1V2248.99L839.948 2252.67L838.098 2257.56L842.722 2258.79L845.496 2261.24V2272.25L846.423 2278.38L849.196 2277.15H856.597V2285.72H859.371L863.071 2273.48L870.469 2268.58L871.396 2263.68H875.093L882.494 2261.24L887.118 2253.89L892.668 2250.22L897.292 2244.1L903.766 2241.65L913.017 2230.63L926.889 2218.39V2215.94L922.265 2217.16L913.941 2220.84V2217.16L922.265 2202.47L921.341 2200.02L912.091 2203.7L904.693 2211.04L895.442 2217.16L892.668 2215.94V2207.37L893.592 2202.47L901.916 2196.35V2191.45H900.066L900.992 2187.78L906.351 2184.02L906.543 2184.11L916.715 2176.76V2180.44L918.565 2182.88L925.039 2185.33L925.965 2179.21L924.115 2170.64L921.341 2169.42L926.889 2168.19L938.914 2160.85H944.464L952.789 2153.5L968.511 2142.48L972.211 2141.26H975.911L977.145 2140.17L977.761 2140.03L985.815 2132.51L986.086 2132.69L993.484 2125.34L1002.73 2116.77L1012.91 2103.31L1016.61 2102.08V2105.75L1014.76 2108.2L1013.83 2113.1H1015.68L1013.22 2117.18L1011.98 2118L997.184 2130.24L994.41 2138.81V2147.38L996.26 2149.83L999.958 2148.61V2148.43L1002.73 2147.38L1001.81 2149.83L995.334 2155.95L981.462 2168.19L961.113 2184.11V2186.55H959.263L955.562 2191.45L958.336 2192.68L965.737 2186.55L975.911 2179.21L987.01 2169.42L1007.36 2149.83L1024.01 2135.14L1037.88 2126.57L1048.06 2121.67L1057.3 2115.55L1059.15 2110.65L1062.85 2105.75L1072.1 2095.96L1081.35 2084.94L1089.68 2083.72L1095.23 2080.05L1099.26 2073.65L1106.19 2067.8L1110.95 2064.13L1120.2 2055.56L1124.72 2051.82L1124.83 2051.88L1135 2043.31L1136.85 2034.75L1139.62 2033.52L1149.8 2024.95L1161.82 2015.16L1166.91 2010.26L1176.62 2001.69L1183.1 2002.92L1201.59 1993.12L1199.32 1998.13L1195.38 2002.04L1190.8 2005.77L1180.32 2012.71L1162.75 2026.18L1148.87 2040.87L1137.77 2048.21L1128.52 2056.78L1116.5 2069.03L1100.78 2082.49L1096.15 2088.62L1091.53 2092.29L1086.9 2097.18L1083.42 2099.78L1083.2 2099.63L1080.98 2101.59L1072.1 2108.2L1062.85 2113.1L1061 2119.22L1057.3 2122.89L1048.06 2130.24L1036.03 2140.03L1034.18 2141.26L1032.33 2142.97L1022.16 2151.05L1018.01 2155.04L1017.53 2154.73L1011.98 2160.85L1007.36 2164.52L1002.73 2169.42V2171.86H1005.51L1009.21 2169.42L1011.06 2164.52L1015.68 2163.3L1016.21 2162.24L1016.61 2162.07L1024.01 2158.4H1030.48L1031.41 2159.62H1037.88L1043.43 2155.95L1045.28 2149.83L1049.9 2148.61V2146.16H1042.51V2142.48L1050.83 2136.36L1060.08 2129.01L1063.78 2124.12L1071.18 2119.22L1083.2 2118L1085.05 2116.77L1087.83 2110.65L1090.6 2104.53L1094.3 2108.2L1095.23 2110.65L1092.45 2115.55L1086.9 2120.44L1081.35 2125.34L1070.25 2136.36L1063.78 2147.38L1058.23 2149.83L1050.83 2159.62L1047.13 2164.52L1038.81 2166.97L1031.41 2175.54L1029.56 2181.66L1026.78 2186.55L1021.23 2192.68L1024.93 2193.9L1026.78 2190.23L1035.11 2182.88L1043.43 2177.99L1048.06 2171.86H1053.6L1058.23 2169.42L1062.79 2164.48L1062.85 2164.52L1068.4 2158.4L1076.73 2154.73L1078.58 2147.38L1076.73 2146.16V2142.48L1082.28 2140.03L1085.05 2137.59L1089.68 2131.46L1095.23 2129.01V2135.14H1098.93L1105.4 2130.24H1112.8V2127.79H1114.65L1115.57 2122.89H1112.8V2119.22L1119.27 2118L1128.52 2119.22L1135 2116.77H1142.4L1143.32 2113.1L1147.02 2106.98H1157.2V2109.43H1159.97V2105.75L1161.82 2100.86L1168.29 2102.08L1174.77 2106.98L1175.69 2103.31L1171.99 2091.06L1175.69 2089.84L1180.32 2083.72L1188.64 2080.05H1195.12L1196.97 2083.72L1207.14 2082.49L1237.67 2076.37L1245.06 2073.92L1249.73 2071.18L1250.61 2071.48L1253.39 2069.03L1252.46 2064.13H1235.82L1227.49 2065.35V2065.43L1220.09 2066.58L1208.53 2069.03H1206.22L1196.97 2071.48L1197.89 2069.03L1207.14 2060.46L1214.54 2051.88L1219.17 2049.44V2053.11L1221.94 2056.78H1226.56L1227.12 2054.58L1229.34 2053.11L1238.59 2044.54L1245.06 2039.64L1247.65 2031.64L1248.9 2030.55L1255.24 2027.4L1260.79 2024.95L1277.44 2016.38L1293.16 2010.26V2005.36H1284.83L1285.76 2002.92L1289.46 2000.47L1298.71 1996.79L1335.71 1985.77L1352.36 1978.43L1374.55 1966.19L1397.68 1950.27V1950.1L1415.25 1936.81L1432.83 1922.11L1446.7 1908.64L1454.1 1900.07L1464.27 1889.06L1476.3 1873.14L1484.62 1860.9L1494.79 1843.76L1502.19 1822.95L1505.89 1818.05L1516.07 1816.82L1527.17 1809.48V1804.58L1520.69 1803.36L1522.54 1797.24L1521.62 1789.89L1518.84 1788.67L1517.92 1784.99H1519.77L1523.47 1778.87V1771.53L1526.24 1770.3L1529.02 1769.08L1534.51 1765.25L1538.26 1762.96L1543.66 1758.88L1546.59 1756.83L1546.47 1756.75L1551.22 1753.16Z" fill="#100F0D"/>
<path d="M953.715 2235.53L937.066 2247.77L932.443 2255.11L920.418 2267.36V2269.81L925.968 2267.36L934.293 2260.01L942.617 2261.24V2263.68L938.917 2268.58L941.69 2269.81L948.167 2264.91L950.941 2257.56L958.339 2247.77L962.039 2240.42V2233.08L958.339 2231.86L953.715 2235.53Z" fill="#100F0D"/>
<path d="M811.277 55.0925L814.977 53.87V34.2783L814.05 25.7089L811.277 14.6904H809.426L808.5 17.1393V36.7272L810.35 53.87L811.277 55.0925Z" fill="#100F0D"/>
<path d="M1347.73 937.796V935.347H1341.26L1334.78 934.121L1331.08 931.672L1326.46 937.796L1327.38 946.366L1332.01 947.589L1334.78 945.14L1343.11 941.468L1347.73 937.796Z" fill="#100F0D"/>
<path d="M999.96 2223.29L995.336 2230.63L987.012 2244.1L989.788 2245.32L999.036 2237.98L1006.44 2229.41L1007.36 2220.84H1002.74L999.96 2223.29Z" fill="#100F0D"/>
<path d="M1243.21 869.236L1239.52 874.134L1233.04 879.029V882.704L1237.67 881.477L1245.99 879.029L1246.91 872.908L1254.32 864.338L1251.54 860.667L1245.06 859.441L1242.29 861.89L1245.06 865.561V869.236H1243.21Z" fill="#100F0D"/>
<path d="M788.152 2327.35L786.302 2322.45L783.526 2332.24L779.828 2337.14L780.752 2343.26L781.678 2356.73L783.526 2365.3L786.302 2368.97L789.076 2367.75L791.85 2357.96L790.926 2338.36L788.152 2327.35Z" fill="#100F0D"/>
<path d="M756.703 2299.19V2328.57H756.993V2329.1H758.843V2328.57H759.48L760.403 2326.12L761.33 2308.98V2295.52H758.553L756.703 2299.19Z" fill="#100F0D"/>
<path d="M1385.65 15.9166L1392.13 17.1392L1391.2 13.4675L1377.33 3.67177L1369 0.000154495L1368.08 1.22651L1370.85 6.12067L1385.65 15.9166Z" fill="#100F0D"/>
<path d="M1424.5 66.1108L1431.9 67.3335L1430.98 63.6619L1419.88 56.3186L1411.55 55.0923L1410.63 58.7639L1413.4 61.213L1424.5 66.1108Z" fill="#100F0D"/>
<path d="M1284.84 1133.68L1283.91 1136.13L1284.84 1138.58L1299.64 1133.68L1304.26 1130.01L1306.11 1125.11H1301.49L1293.16 1128.78L1284.84 1133.68Z" fill="#100F0D"/>
<path d="M1321.83 978.195L1325.53 979.421L1333.86 974.523L1335.71 969.625L1331.08 968.403L1327.38 969.625L1320.91 972.074L1321.83 978.195Z" fill="#100F0D"/>
<path d="M1362.53 925.552L1356.06 924.329L1349.58 928.001L1351.43 932.899L1357.91 934.121L1363.45 930.45L1362.53 925.552Z" fill="#100F0D"/>
<path d="M1327.38 457.878L1329.23 459.104H1335.71L1337.56 457.878L1338.48 451.757L1332.93 449.308L1328.31 452.984L1327.38 457.878Z" fill="#100F0D"/>
<path d="M908.39 2282.05L898.219 2293.07L901.916 2295.52L905.617 2294.29L907.467 2290.62L913.017 2289.4L911.167 2282.05H908.39Z" fill="#100F0D"/>
<path d="M1406.93 947.589V945.139L1399.53 943.917L1398.6 945.139L1396.75 953.709L1400.45 957.384L1405.08 956.158L1402.3 952.486V950.037L1406.93 947.589Z" fill="#100F0D"/>
<path d="M922.266 2242.87H924.116L928.74 2239.2L933.364 2226.96H930.59L928.74 2228.18L923.192 2236.75L922.266 2242.87Z" fill="#100F0D"/>
<path d="M989.787 2184.11L984.236 2179.21L979.612 2177.99L974.062 2189L969.438 2200.02L973.138 2201.25L979.612 2197.57L981.152 2196.15L981.462 2196.35L988.86 2189L989.787 2184.11Z" fill="#100F0D"/>
<path d="M1373.63 973.301L1374.56 969.625L1370.86 968.403L1369.93 969.625L1364.38 972.074L1361.61 978.195H1366.23L1373.63 973.301Z" fill="#100F0D"/>
<path d="M760.405 82.0272V72.2313L759.482 69.7824L756.705 68.5598L755.781 71.0087V80.8009L756.705 83.2498L760.405 82.0272Z" fill="#100F0D"/>
<path d="M1262.64 276.688L1270.96 280.36L1271.89 276.688L1269.11 274.235L1260.79 271.79L1262.64 276.688Z" fill="#100F0D"/>
<path d="M700.283 173.847L699.359 179.967L702.133 182.416L705.834 178.744L704.91 173.847L701.21 172.624L700.283 173.847Z" fill="#100F0D"/>
<path d="M1352.36 950.037H1346.81L1344.96 951.264V956.158L1352.36 954.935V950.037Z" fill="#100F0D"/>
<path d="M1350.51 1425.06L1352.36 1426.28L1358.83 1425.06V1421.38L1354.21 1420.16L1351.43 1421.38L1350.51 1425.06Z" fill="#100F0D"/>
<path d="M993.484 2207.37L997.185 2209.82L1000.89 2211.04L1001.81 2206.14L999.035 2204.92L993.484 2203.7V2207.37Z" fill="#100F0D"/>
<path d="M1334.78 962.282V959.833L1331.09 957.384L1325.54 959.833V962.282L1328.31 963.505L1334.78 962.282Z" fill="#100F0D"/>
<path d="M1397.68 881.477V876.58H1393.06L1392.13 877.806V882.704H1396.75L1397.68 881.477Z" fill="#100F0D"/>
<path d="M686.413 215.472H683.637V227.716L686.413 228.939V215.472Z" fill="#100F0D"/>
<path d="M1331.09 1678.48L1337.56 1687.05L1341.26 1689.5V1687.05L1338.48 1683.38L1331.09 1676.03V1678.48Z" fill="#100F0D"/>
<path d="M1323.68 1396.9L1332.01 1405.47L1334.78 1404.24L1329.23 1398.12L1323.68 1395.67V1396.9Z" fill="#100F0D"/>
<path d="M1096.15 2147.38H1094.3L1090.6 2157.17H1086.9L1082.28 2154.73L1078.58 2157.17L1079.5 2163.3L1078.58 2170.64L1083.2 2171.86L1088.75 2168.19L1092.45 2163.3H1098L1101.7 2165.74L1105.4 2160.85V2158.4V2152.28L1100.78 2147.38H1096.15Z" fill="#100F0D"/>
<path d="M992.562 2197.57H989.788L987.938 2198.8L987.012 2203.7H991.636L992.562 2197.57Z" fill="#100F0D"/>
<path d="M1440.23 896.171H1437.45L1433.75 898.617L1432.83 902.292H1436.53L1440.23 899.843V896.171Z" fill="#100F0D"/>
<path d="M1380.11 1390.78L1385.66 1389.55L1384.73 1385.88H1380.11V1390.78Z" fill="#100F0D"/>
<path d="M804.803 2331.02L802.953 2333.47V2339.59H805.727L806.653 2332.24L804.803 2331.02Z" fill="#100F0D"/>
<path d="M1084.13 2144.93L1086.9 2143.71L1087.83 2138.81L1085.05 2137.59L1083.2 2140.03L1084.13 2144.93Z" fill="#100F0D"/>
<path d="M1343.11 457.878H1347.73L1346.81 454.206L1342.18 452.984L1343.11 457.878Z" fill="#100F0D"/>
<path d="M706.76 140.791L704.913 138.342L703.062 143.24L703.986 146.912H705.836L706.76 140.791Z" fill="#100F0D"/>
<path d="M1310.73 2.44887L1305.18 -2.76566e-05V3.67159L1311.66 4.89795L1310.73 2.44887Z" fill="#100F0D"/>
<path d="M909.318 2245.32H907.467L905.617 2246.55V2251.44L909.318 2250.22V2245.32Z" fill="#100F0D"/>
<path d="M931.517 2185.33L929.667 2184.11L927.816 2185.33V2190.23L930.59 2189L931.517 2185.33Z" fill="#100F0D"/>
<path d="M1410.63 877.806H1407.85L1406 882.704L1410.63 881.477V877.806Z" fill="#100F0D"/>
<path d="M806.652 2346.94H809.426L810.35 2342.04H807.576L806.652 2346.94Z" fill="#100F0D"/>
<path d="M1381.03 864.339H1375.48V866.788L1377.33 868.01L1381.03 866.788V864.339Z" fill="#100F0D"/>
<path d="M1397.68 861.89V865.561H1401.38L1402.3 861.89H1397.68Z" fill="#100F0D"/>
<path d="M761.333 143.24V126.101H760.406V143.24H761.333Z" fill="#100F0D"/>
<path d="M1382.88 943.917H1381.03L1379.18 945.14V947.589L1382.88 948.815V943.917Z" fill="#100F0D"/>
<path d="M1367.15 932.898L1366.23 936.57L1369 937.796L1369.93 932.898H1367.15Z" fill="#100F0D"/>
<path d="M1289.46 859.441L1290.39 854.543H1288.54L1285.76 858.218L1289.46 859.441Z" fill="#100F0D"/>
<path d="M801.103 75.907L797.402 74.6806V78.3523L800.176 79.5786L801.103 75.907Z" fill="#100F0D"/>
<path d="M885.27 2305.31L889.896 2304.09L888.97 2300.42L885.27 2305.31Z" fill="#100F0D"/>
<path d="M1046.21 2193.9H1048.06L1049.9 2190.23L1046.21 2189V2193.9Z" fill="#100F0D"/>
<path d="M1404.15 1350.38V1352.82H1408.78V1350.38L1406 1349.15L1404.15 1350.38Z" fill="#100F0D"/>
<path d="M1357.91 951.264L1360.68 950.037V946.366H1357.91V951.264Z" fill="#100F0D"/>
<path d="M1399.53 913.31L1403.22 914.533L1404.15 910.861H1400.45L1399.53 913.31Z" fill="#100F0D"/>
<path d="M1384.73 907.19V910.861H1387.5L1388.43 907.19L1386.58 905.964L1384.73 907.19Z" fill="#100F0D"/>
<path d="M1397.68 903.514L1401.38 904.741L1402.3 902.292L1397.68 901.066V903.514Z" fill="#100F0D"/>
<path d="M761.331 111.407H760.404L759.48 118.754L761.331 121.203V111.407Z" fill="#100F0D"/>
<path d="M806.652 110.185L805.725 106.513H803.875V112.634L804.801 113.856L806.652 110.185Z" fill="#100F0D"/>
<path d="M832.551 2335.92L834.401 2337.14L835.325 2332.24L833.474 2331.02L832.551 2335.92Z" fill="#100F0D"/>
<path d="M1290.39 842.302H1287.61V845.973L1290.39 847.2V842.302Z" fill="#100F0D"/>
<path d="M738.206 80.801L739.13 77.1294L736.356 75.9069L735.43 77.1294L736.356 80.801H738.206Z" fill="#100F0D"/>
<path d="M814.051 69.7824L815.901 74.6804L816.825 68.5599L814.977 67.3335L814.051 69.7824Z" fill="#100F0D"/>
<path d="M967.591 2146.16L966.664 2149.83H970.364V2147.38L967.591 2146.16Z" fill="#100F0D"/>
<path d="M1338.48 783.538L1335.71 779.862L1334.78 783.538H1338.48Z" fill="#100F0D"/>
<path d="M735.43 129.772H737.28V123.652H735.43V129.772Z" fill="#100F0D"/>
<path d="M1157.2 2121.67L1160.9 2120.44V2118H1158.13L1157.2 2121.67Z" fill="#100F0D"/>
<path d="M814.977 106.513H816.824V101.615L814.977 100.389V106.513Z" fill="#100F0D"/>
<path d="M735.432 85.6988L732.658 84.4724L731.734 88.1477H735.432V85.6988Z" fill="#100F0D"/>
<path d="M1438.38 980.644L1439.3 978.195L1436.53 976.972L1435.6 979.421L1438.38 980.644Z" fill="#100F0D"/>
<path d="M646.639 160.379H644.789V165.277H646.639V160.379Z" fill="#100F0D"/>
<path d="M995.334 2191.45L993.484 2195.12L997.185 2193.9V2191.45H995.334Z" fill="#100F0D"/>
<path d="M1390.28 924.329L1394.9 923.103L1391.2 921.88L1390.28 924.329Z" fill="#100F0D"/>
<path d="M1397.68 888.824H1394.9V891.273L1396.75 892.496L1397.68 888.824Z" fill="#100F0D"/>
<path d="M773.355 2302.86L775.203 2305.31L776.129 2301.64H774.279L773.355 2302.86Z" fill="#100F0D"/>
<path d="M817.752 118.754H815.902V122.429H817.752V118.754Z" fill="#100F0D"/>
<path d="M773.354 104.064H771.504V107.736H773.354V104.064Z" fill="#100F0D"/>
<path d="M1147.02 2126.57H1149.8L1147.95 2124.12L1147.02 2126.57Z" fill="#100F0D"/>
<path d="M1429.13 1701.74V1699.29H1426.35V1700.52L1429.13 1701.74Z" fill="#100F0D"/>
<path d="M1435.6 1333.23L1431.9 1332.01L1433.75 1334.46L1435.6 1333.23Z" fill="#100F0D"/>
<path d="M1419.88 1057.77L1422.65 1059V1056.55H1420.8L1419.88 1057.77Z" fill="#100F0D"/>
<path d="M1354.21 968.403H1351.43V969.625L1354.21 970.852V968.403Z" fill="#100F0D"/>
<path d="M1430.05 950.037L1430.98 946.366H1429.12L1430.05 950.037Z" fill="#100F0D"/>
<path d="M1421.73 839.853L1424.5 838.63L1421.73 837.404V839.853Z" fill="#100F0D"/>
<path d="M816.824 85.6988L814.977 84.4724V88.1477H816.824V85.6988Z" fill="#100F0D"/>
<path d="M723.406 2345.71H726.183L723.406 2344.49V2345.71Z" fill="#100F0D"/>
<path d="M990.709 2230.63V2228.18H988.859V2230.63H990.709Z" fill="#100F0D"/>
<path d="M971.289 2214.72H974.063L972.213 2213.49L971.289 2214.72Z" fill="#100F0D"/>
<path d="M1141.48 2138.81H1143.32V2136.36H1141.48V2138.81Z" fill="#100F0D"/>
<path d="M1439.3 1713.99H1441.15V1711.54H1439.3V1713.99Z" fill="#100F0D"/>
<path d="M1406 1668.69L1403.23 1667.46V1668.69H1406Z" fill="#100F0D"/>
<path d="M1388.43 879.029H1386.58V881.478H1388.43V879.029Z" fill="#100F0D"/>
<path d="M1419.87 879.029V876.58H1418.03V879.029H1419.87Z" fill="#100F0D"/>
<path d="M1324.61 871.686V869.237H1322.76V871.686H1324.61Z" fill="#100F0D"/>
<path d="M1369.93 898.617L1371.78 897.394L1369.93 896.172V898.617Z" fill="#100F0D"/>
<path d="M692.887 198.333V200.781L694.737 199.555L692.887 198.333Z" fill="#100F0D"/>
<path d="M735.723 2409.9L732.023 2406.23L729.249 2408.68L727.399 2417.25L726.473 2436.83L728.323 2445.4L732.023 2466.22H734.797L735.723 2458.87L737.574 2449.08V2433.16L736.647 2425.81L735.723 2409.9Z" fill="#100F0D"/>
<path d="M482.293 300.473L498.942 288.228L503.566 280.885L515.59 268.64V266.191L510.04 268.64L501.716 275.987L493.391 274.761V272.312L497.092 267.418L494.318 266.191L487.841 271.089L485.067 278.436L477.669 288.228L473.969 295.575V302.922L477.669 304.145L482.293 300.473Z" fill="#100F0D"/>
<path d="M624.729 2480.91L621.031 2482.13V2501.72L621.955 2510.29L624.729 2521.31H626.579L627.505 2518.86V2499.27L625.655 2482.13L624.729 2480.91Z" fill="#100F0D"/>
<path d="M88.2734 1598.2V1600.65H94.7476L101.225 1601.88L104.922 1604.32L109.549 1598.2L108.622 1589.63L103.998 1588.41L101.225 1590.86L92.9002 1594.53L88.2734 1598.2Z" fill="#100F0D"/>
<path d="M436.045 312.714L440.669 305.368L448.993 291.904L446.217 290.677L436.969 298.024L429.568 306.594L428.645 315.163H433.269L436.045 312.714Z" fill="#100F0D"/>
<path d="M192.792 1666.76L196.49 1661.87L202.964 1656.97V1653.3L198.34 1654.52L190.016 1656.97L189.092 1663.09L181.691 1671.66L184.468 1675.33L190.942 1676.56L193.716 1674.11L190.942 1670.44V1666.76H192.792Z" fill="#100F0D"/>
<path d="M647.85 208.654L649.7 213.548L652.477 203.752L656.174 198.858L655.25 192.737L654.327 179.27L652.477 170.701L649.7 167.025L646.926 168.248L644.152 178.044L645.076 197.632L647.85 208.654Z" fill="#100F0D"/>
<path d="M679.303 236.807V207.427H679.013V206.902H677.162V207.427H676.526L675.602 209.876L674.676 227.015V240.483H677.452L679.303 236.807Z" fill="#100F0D"/>
<path d="M50.3492 2520.08L43.875 2518.86L44.7987 2522.53L58.6735 2532.33L66.9978 2536L67.9243 2534.77L65.1476 2529.88L50.3492 2520.08Z" fill="#100F0D"/>
<path d="M11.5041 2469.89L4.10547 2468.66L5.03054 2472.34L16.1287 2479.68L24.4539 2480.91L25.3789 2477.24L22.6034 2474.79L11.5041 2469.89Z" fill="#100F0D"/>
<path d="M151.17 1402.32L152.094 1399.87L151.17 1397.42L136.369 1402.32L131.745 1405.99L129.895 1410.89H134.521L142.846 1407.22L151.17 1402.32Z" fill="#100F0D"/>
<path d="M114.172 1557.81L110.471 1556.58L102.147 1561.48L100.297 1566.37L104.921 1567.6L108.621 1566.37L115.095 1563.93L114.172 1557.81Z" fill="#100F0D"/>
<path d="M73.4744 1610.45L79.9486 1611.67L86.4227 1608L84.5754 1603.1L78.0984 1601.88L72.5508 1605.55L73.4744 1610.45Z" fill="#100F0D"/>
<path d="M108.622 2078.12L106.771 2076.9H100.297L98.4471 2078.12L97.5234 2084.24L103.071 2086.69L107.698 2083.02L108.622 2078.12Z" fill="#100F0D"/>
<path d="M527.615 253.95L537.787 242.932L534.089 240.483L530.389 241.709L528.539 245.381L522.988 246.604L524.838 253.95H527.615Z" fill="#100F0D"/>
<path d="M29.0781 1588.41V1590.86L36.4779 1592.08L37.4019 1590.86L39.2523 1582.29L35.5528 1578.62L30.9283 1579.84L33.7024 1583.51V1585.96L29.0781 1588.41Z" fill="#100F0D"/>
<path d="M513.739 293.126H511.889L507.265 296.798L502.641 309.043H505.414L507.265 307.816L512.812 299.247L513.739 293.126Z" fill="#100F0D"/>
<path d="M446.219 351.89L451.769 356.788L456.393 358.011L461.944 346.996L466.568 335.978L462.867 334.751L456.393 338.423L454.853 339.854L454.543 339.649L447.145 346.996L446.219 351.89Z" fill="#100F0D"/>
<path d="M62.3757 1562.7L61.4492 1566.37L65.1495 1567.6L66.076 1566.37L71.6237 1563.93L74.4003 1557.81H69.7735L62.3757 1562.7Z" fill="#100F0D"/>
<path d="M675.602 2453.97V2463.77L676.525 2466.22L679.302 2467.44L680.226 2464.99V2455.19L679.302 2452.75L675.602 2453.97Z" fill="#100F0D"/>
<path d="M173.365 2259.31L165.041 2255.64L164.117 2259.31L166.891 2261.76L175.215 2264.21L173.365 2259.31Z" fill="#100F0D"/>
<path d="M735.722 2362.15L736.646 2356.03L733.872 2353.58L730.172 2357.26L731.096 2362.15L734.796 2363.38L735.722 2362.15Z" fill="#100F0D"/>
<path d="M83.6484 1585.96H89.1989L91.0491 1584.74V1579.84L83.6484 1581.06V1585.96Z" fill="#100F0D"/>
<path d="M85.5001 1110.94L83.6499 1109.72L77.1758 1110.94V1114.62L81.7998 1115.84L84.5764 1114.62L85.5001 1110.94Z" fill="#100F0D"/>
<path d="M442.52 328.631L438.819 326.182L435.119 324.959L434.195 329.853L436.969 331.08L442.52 332.302V328.631Z" fill="#100F0D"/>
<path d="M101.223 1573.72V1576.17L104.92 1578.62L110.471 1576.17V1573.72L107.697 1572.5L101.223 1573.72Z" fill="#100F0D"/>
<path d="M38.3281 1654.52V1659.42H42.9544L43.878 1658.19V1653.3H39.2535L38.3281 1654.52Z" fill="#100F0D"/>
<path d="M749.594 2320.53H752.37V2308.28L749.594 2307.06V2320.53Z" fill="#100F0D"/>
<path d="M104.921 857.517L98.4464 848.948L94.7461 846.499V848.948L97.5227 852.619L104.921 859.966V857.517Z" fill="#100F0D"/>
<path d="M112.321 1139.1L103.996 1130.53L101.223 1131.76L106.77 1137.88L112.321 1140.33V1139.1Z" fill="#100F0D"/>
<path d="M339.853 388.621H341.704L345.404 378.825H349.104L353.728 381.274L357.429 378.825L356.502 372.705L357.429 365.358L352.805 364.135L347.254 367.807L343.554 372.705H338.003L334.306 370.256L330.605 375.154V377.603V383.723L335.229 388.621H339.853Z" fill="#100F0D"/>
<path d="M443.445 338.423H446.219L448.069 337.2L448.996 332.303H444.372L443.445 338.423Z" fill="#100F0D"/>
<path d="M-4.21875 1639.83H-1.44436L2.25513 1637.38L3.1802 1633.71H-0.519284L-4.21875 1636.16V1639.83Z" fill="#100F0D"/>
<path d="M55.9021 1145.22L50.3516 1146.45L51.2781 1150.12H55.9021V1145.22Z" fill="#100F0D"/>
<path d="M631.202 204.979L633.052 202.529V196.409H630.278L629.352 203.752L631.202 204.979Z" fill="#100F0D"/>
<path d="M351.876 391.07L349.102 392.293L348.176 397.19L350.952 398.413L352.803 395.964L351.876 391.07Z" fill="#100F0D"/>
<path d="M92.9002 2078.12H88.2734L89.1999 2081.79L93.8239 2083.02L92.9002 2078.12Z" fill="#100F0D"/>
<path d="M729.246 2395.21L731.093 2397.66L732.944 2392.76L732.02 2389.09H730.17L729.246 2395.21Z" fill="#100F0D"/>
<path d="M125.271 2533.55L130.822 2536V2532.33L124.348 2531.1L125.271 2533.55Z" fill="#100F0D"/>
<path d="M526.688 290.677H528.538L530.388 289.455V284.557L526.688 285.779V290.677Z" fill="#100F0D"/>
<path d="M504.488 350.667L506.338 351.89L508.189 350.667V345.77L505.415 346.996L504.488 350.667Z" fill="#100F0D"/>
<path d="M25.3789 1658.19H28.153L30.0035 1653.3L25.3789 1654.52V1658.19Z" fill="#100F0D"/>
<path d="M629.354 189.062H626.58L625.656 193.96H628.43L629.354 189.062Z" fill="#100F0D"/>
<path d="M54.9766 1671.66H60.527V1669.21L58.6769 1667.99L54.9766 1669.21V1671.66Z" fill="#100F0D"/>
<path d="M38.3277 1674.11V1670.44H34.6285L33.7031 1674.11H38.3277Z" fill="#100F0D"/>
<path d="M674.676 2392.76V2409.9H675.602V2392.76H674.676Z" fill="#100F0D"/>
<path d="M53.125 1592.08H54.9752L56.8253 1590.86V1588.41L53.125 1587.19V1592.08Z" fill="#100F0D"/>
<path d="M68.8481 1603.1L69.7717 1599.43L66.9979 1598.2L66.0742 1603.1H68.8481Z" fill="#100F0D"/>
<path d="M146.541 1676.56L145.617 1681.45H147.467L150.241 1677.78L146.541 1676.56Z" fill="#100F0D"/>
<path d="M634.902 2460.09L638.603 2461.32V2457.64L635.829 2456.42L634.902 2460.09Z" fill="#100F0D"/>
<path d="M550.736 230.687L546.109 231.914L547.036 235.585L550.736 230.687Z" fill="#100F0D"/>
<path d="M389.799 342.098H387.949L386.102 345.77L389.799 346.996V342.098Z" fill="#100F0D"/>
<path d="M31.8511 1185.62V1183.17H27.2266V1185.62L30.0021 1186.85L31.8511 1185.62Z" fill="#100F0D"/>
<path d="M78.098 1584.74L75.3242 1585.96V1589.63H78.098V1584.74Z" fill="#100F0D"/>
<path d="M36.4773 1622.69L32.7767 1621.47L31.8516 1625.14H35.5522L36.4773 1622.69Z" fill="#100F0D"/>
<path d="M51.2785 1628.81V1625.14H48.5018L47.5781 1628.81L49.4283 1630.04L51.2785 1628.81Z" fill="#100F0D"/>
<path d="M38.3277 1632.49L34.6285 1631.26L33.7031 1633.71L38.3277 1634.93V1632.49Z" fill="#100F0D"/>
<path d="M674.676 2424.59H675.602L676.526 2417.25L674.676 2414.8V2424.59Z" fill="#100F0D"/>
<path d="M629.352 2425.81L630.278 2429.49H632.128V2423.37L631.202 2422.14L629.352 2425.81Z" fill="#100F0D"/>
<path d="M603.457 200.081L601.607 198.858L600.684 203.752L602.534 204.979L603.457 200.081Z" fill="#100F0D"/>
<path d="M145.617 1693.7H148.391V1690.03L145.617 1688.8V1693.7Z" fill="#100F0D"/>
<path d="M697.799 2455.2L696.875 2458.87L699.649 2460.09L700.575 2458.87L699.649 2455.2H697.799Z" fill="#100F0D"/>
<path d="M621.953 2466.22L620.103 2461.32L619.18 2467.44L621.03 2468.66L621.953 2466.22Z" fill="#100F0D"/>
<path d="M468.418 389.844L469.345 386.172H465.645V388.621L468.418 389.844Z" fill="#100F0D"/>
<path d="M97.5234 1752.46L100.297 1756.14L101.224 1752.46H97.5234Z" fill="#100F0D"/>
<path d="M700.573 2406.23H698.723V2412.35H700.573V2406.23Z" fill="#100F0D"/>
<path d="M278.81 414.329L275.109 415.556V418.001H277.886L278.81 414.329Z" fill="#100F0D"/>
<path d="M621.03 2429.49H619.18V2434.39L621.03 2435.61V2429.49Z" fill="#100F0D"/>
<path d="M700.574 2450.3L703.348 2451.52L704.275 2447.85H700.574V2450.3Z" fill="#100F0D"/>
<path d="M-2.36788 1555.36L-3.29297 1557.81L-0.517733 1559.03L0.407357 1556.58L-2.36788 1555.36Z" fill="#100F0D"/>
<path d="M789.363 2375.62H791.213V2370.72H789.363V2375.62Z" fill="#100F0D"/>
<path d="M440.67 344.547L442.521 340.872L438.82 342.098V344.547H440.67Z" fill="#100F0D"/>
<path d="M45.7256 1611.67L41.1016 1612.9L44.7991 1614.12L45.7256 1611.67Z" fill="#100F0D"/>
<path d="M38.3281 1647.18H41.1042V1644.73L39.2535 1643.5L38.3281 1647.18Z" fill="#100F0D"/>
<path d="M662.652 233.136L660.801 230.687L659.875 234.363H661.725L662.652 233.136Z" fill="#100F0D"/>
<path d="M618.254 2417.25H620.104V2413.57H618.254V2417.25Z" fill="#100F0D"/>
<path d="M662.652 2431.94H664.5V2428.26H662.652V2431.94Z" fill="#100F0D"/>
<path d="M288.981 409.432H286.207L288.054 411.881L288.981 409.432Z" fill="#100F0D"/>
<path d="M6.87891 834.258V836.707H9.65443V835.48L6.87891 834.258Z" fill="#100F0D"/>
<path d="M0.40625 1202.77L4.10573 1203.99L2.25557 1201.54L0.40625 1202.77Z" fill="#100F0D"/>
<path d="M16.1296 1478.23L13.3555 1477V1479.45H15.2056L16.1296 1478.23Z" fill="#100F0D"/>
<path d="M81.7969 1567.6H84.5735V1566.37L81.7969 1565.15V1567.6Z" fill="#100F0D"/>
<path d="M5.95521 1585.96L5.03125 1589.63H6.88028L5.95521 1585.96Z" fill="#100F0D"/>
<path d="M14.2794 1696.15L11.5039 1697.37L14.2794 1698.6V1696.15Z" fill="#100F0D"/>
<path d="M619.18 2450.3L621.03 2451.52V2447.85H619.18V2450.3Z" fill="#100F0D"/>
<path d="M712.597 190.288H709.82L712.597 191.511V190.288Z" fill="#100F0D"/>
<path d="M445.293 305.367V307.816H447.143V305.367H445.293Z" fill="#100F0D"/>
<path d="M464.715 321.284H461.941L463.792 322.51L464.715 321.284Z" fill="#100F0D"/>
<path d="M294.534 397.191H292.684V399.64H294.534V397.191Z" fill="#100F0D"/>
<path d="M30.0039 867.313L32.778 868.536V867.313H30.0039Z" fill="#100F0D"/>
<path d="M47.5781 1656.97H49.4283V1654.52H47.5781V1656.97Z" fill="#100F0D"/>
<path d="M16.1289 1656.97V1659.42H17.9794V1656.97H16.1289Z" fill="#100F0D"/>
<path d="M111.395 1664.31V1666.76H113.245V1664.31H111.395Z" fill="#100F0D"/>
<path d="M66.0767 1637.38L64.2266 1638.61L66.0767 1639.83V1637.38Z" fill="#100F0D"/>
<path d="M743.12 2337.67V2335.22L741.27 2336.44L743.12 2337.67Z" fill="#100F0D"/>
</g>
<defs>
<clipPath id="clip0_67_1180">
<rect width="1918" height="2536" fill="white" transform="translate(-241)"/>
</clipPath>
</defs>
</svg>
